<svg xmlns="http://www.w3.org/2000/svg" fill="none" viewBox="0 0 128 128">
    <path d="M64 10c-29.5 0-54 24.2-54 54s24.5 54 54 54 54-24.2 54-54-24.5-54-54-54zm0 103c-14.9 0-27-12.1-27-27s12.1-27 27-27 27 12.1 27 27-12.1 27-27 27z"/>
    <path d="M64 16c-2.5 0-4.5 2-4.5 4.5s2 4.5 4.5 4.5 4.5-2 4.5-4.5-2-4.5-4.5-4.5zM64 110c-2.5 0-4.5 2-4.5 4.5s2 4.5 4.5 4.5 4.5-2 4.5-4.5-2-4.5-4.5-4.5zM16.8 63.2c-1.5-1.5-3.9-1.5-5.4 0s-1.5 3.9 0 5.4l1.1 1.1c-4.4 4.4-7.1 9.7-7.1 15.5s2.7 11.1 7.1 15.5c1.5 1.5 3.9 1.5 5.4 0s1.5-3.9 0-5.4c-3.7-3.7-6-8.3-6-10.6s2.3-6.9 6-10.6l-1.1-1.1zM111.2 64c1.5-1.5 1.5-3.9 0-5.4s-3.9-1.5-5.4 0l-1.1 1.1c-4.4-4.4-9.7-7.1-15.5-7.1s-11.1 2.7-15.5 7.1c-1.5 1.5-3.9 1.5-5.4 0s-1.5-3.9 0-5.4c3.7-3.7 8.3-6 10.6-6s6.9 2.3 10.6 6l1.1-1.1zM40.8 87.2c-1.5 1.5-1.5 3.9 0 5.4s3.9 1.5 5.4 0l1.1-1.1c3.7 3.7 8.3 6 10.6 6s6.9-2.3 10.6-6c1.5-1.5 3.9-1.5 5.4 0s1.5 3.9 0 5.4c-4.4 4.4-9.7 7.1-15.5 7.1s-11.1-2.7-15.5-7.1l-1.1 1.1zM87.2 40.8c1.5-1.5 1.5-3.9 0-5.4s-3.9-1.5-5.4 0l-1.1 1.1c-3.7-3.7-8.3-6-10.6-6s-6.9 2.3-10.6 6c-1.5 1.5-3.9 1.5-5.4 0s-1.5-3.9 0-5.4c4.4-4.4 9.7-7.1 15.5-7.1s11.1 2.7 15.5 7.1l1.1-1.1z"/>
    <circle cx="50" cy="60" r="10" fill="#e74c3c"/>
    <rect x="60" y="45" width="5" height="20" fill="#2ecc71"/>
    <rect x="48" y="38" width="12" height="5" fill="#3498db"/>
    <style>
        path { fill: #3498db; }
        rect { fill: #2c3e50; }
        circle { fill: #e74c3c; }
        @media (prefers-color-scheme: dark) {
            path { fill: #5dade2; }
            rect { fill: #34495e; }
            circle { fill: #e74c3c; }
        }
    </style>
</svg>
